<svg width="64" height="64" viewBox="0 0 64 64" xmlns="http://www.w3.org/2000/svg"><rect width="64" height="64" rx="16" fill="#FBF8F1"/><circle cx="32" cy="10" r="6" fill="#FFD23F"/><path d="M22 23C15 19 8 23 8 32c0 6 4 11 8 14 2 1 5 1 6-1 1-2 1-4-1-6-2-2-3-4-2-7 2-5 8-6 12 1l1 2 1-2c4-7 10-6 12-1 1 3 0 5-2 7-2 2-2 4-1 6 1 2 4 2 6 1 4-3 8-8 8-14 0-9-7-13-14-9-4 2-7 5-10 11-3-6-6-9-10-11z" fill="#004AAD"/><path d="M32 42C28 36 22 34 22 28c0-4 3-7 7-7 2 0 4 1 5 3 1-2 3-3 5-3 4 0 7 3 7 7 0 6-6 8-10 14l-2 3-2-3z" fill="#D92828"/></svg>